solid eMachineShop01
  facet normal 0.000000E+000 0.000000E+000 1.000000E+000
    outer loop
      vertex 0.000000E+000 0.000000E+000 2.540000E+002
      vertex 2.540000E+002 0.000000E+000 2.540000E+002
      vertex 2.540000E+002 2.540000E+002 2.540000E+002
    endloop
  endfacet
  facet normal 0.000000E+000 0.000000E+000 1.000000E+000
    outer loop
      vertex 0.000000E+000 0.000000E+000 2.540000E+002
      vertex 2.540000E+002 2.540000E+002 2.540000E+002
      vertex 0.000000E+000 2.540000E+002 2.540000E+002
    endloop
  endfacet
  facet normal 0.000000E+000 0.000000E+000 -1.000000E+000
    outer loop
      vertex 0.000000E+000 0.000000E+000 0.000000E+000
      vertex 2.540000E+002 2.540000E+002 0.000000E+000
      vertex 2.540000E+002 0.000000E+000 0.000000E+000
    endloop
  endfacet
  facet normal 0.000000E+000 0.000000E+000 -1.000000E+000
    outer loop
      vertex 0.000000E+000 0.000000E+000 0.000000E+000
      vertex 0.000000E+000 2.540000E+002 0.000000E+000
      vertex 2.540000E+002 2.540000E+002 0.000000E+000
    endloop
  endfacet
  facet normal 0.000000E+000 -1.000000E+000 6.123032E-017
    outer loop
      vertex 0.000000E+000 0.000000E+000 0.000000E+000
      vertex 2.540000E+002 0.000000E+000 0.000000E+000
      vertex 2.540000E+002 1.555250E-014 2.540000E+002
    endloop
  endfacet
  facet normal 0.000000E+000 -1.000000E+000 6.123032E-017
    outer loop
      vertex 0.000000E+000 0.000000E+000 0.000000E+000
      vertex 2.540000E+002 1.555250E-014 2.540000E+002
      vertex 0.000000E+000 1.555250E-014 2.540000E+002
    endloop
  endfacet
  facet normal 1.000000E+000 -6.123032E-017 6.123032E-017
    outer loop
      vertex 2.540000E+002 0.000000E+000 0.000000E+000
      vertex 2.540000E+002 2.540000E+002 0.000000E+000
      vertex 2.540000E+002 2.540000E+002 2.540000E+002
    endloop
  endfacet
  facet normal 1.000000E+000 -6.123032E-017 6.123032E-017
    outer loop
      vertex 2.540000E+002 0.000000E+000 0.000000E+000
      vertex 2.540000E+002 2.540000E+002 2.540000E+002
      vertex 2.540000E+002 9.522846E-031 2.540000E+002
    endloop
  endfacet
  facet normal 1.136868E-016 1.000000E+000 6.123032E-017
    outer loop
      vertex 2.540000E+002 2.540000E+002 0.000000E+000
      vertex 0.000000E+000 2.540000E+002 0.000000E+000
      vertex 0.000000E+000 2.540000E+002 2.540000E+002
    endloop
  endfacet
  facet normal 1.136868E-016 1.000000E+000 6.123032E-017
    outer loop
      vertex 2.540000E+002 2.540000E+002 0.000000E+000
      vertex 0.000000E+000 2.540000E+002 2.540000E+002
      vertex 2.540000E+002 2.540000E+002 2.540000E+002
    endloop
  endfacet
  facet normal -1.000000E+000 1.705303E-016 6.123032E-017
    outer loop
      vertex 0.000000E+000 2.540000E+002 0.000000E+000
      vertex -4.665750E-014 0.000000E+000 0.000000E+000
      vertex -3.110500E-014 0.000000E+000 2.540000E+002
    endloop
  endfacet
  facet normal -1.000000E+000 1.705303E-016 6.123032E-017
    outer loop
      vertex 0.000000E+000 2.540000E+002 0.000000E+000
      vertex -3.110500E-014 0.000000E+000 2.540000E+002
      vertex 1.555250E-014 2.540000E+002 2.540000E+002
    endloop
  endfacet
endsolid eMachineShop01
