solid eMachineShop01
  facet normal 0.000000E+000 0.000000E+000 1.000000E+000
    outer loop
      vertex 0.000000E+000 0.000000E+000 1.590000E+000
      vertex 3.973379E+002 0.000000E+000 1.590000E+000
      vertex 3.973379E+002 3.001169E+002 1.590000E+000
    endloop
  endfacet
  facet normal 0.000000E+000 0.000000E+000 1.000000E+000
    outer loop
      vertex 0.000000E+000 0.000000E+000 1.590000E+000
      vertex 3.973379E+002 3.001169E+002 1.590000E+000
      vertex 0.000000E+000 3.001169E+002 1.590000E+000
    endloop
  endfacet
  facet normal 0.000000E+000 0.000000E+000 -1.000000E+000
    outer loop
      vertex 0.000000E+000 0.000000E+000 0.000000E+000
      vertex 3.973379E+002 3.001169E+002 0.000000E+000
      vertex 3.973379E+002 0.000000E+000 0.000000E+000
    endloop
  endfacet
  facet normal 0.000000E+000 0.000000E+000 -1.000000E+000
    outer loop
      vertex 0.000000E+000 0.000000E+000 0.000000E+000
      vertex 0.000000E+000 3.001169E+002 0.000000E+000
      vertex 3.973379E+002 3.001169E+002 0.000000E+000
    endloop
  endfacet
  facet normal 0.000000E+000 -1.000000E+000 6.123032E-017
    outer loop
      vertex 0.000000E+000 0.000000E+000 0.000000E+000
      vertex 3.973379E+002 0.000000E+000 0.000000E+000
      vertex 3.973379E+002 9.735621E-017 1.590000E+000
    endloop
  endfacet
  facet normal 0.000000E+000 -1.000000E+000 6.123032E-017
    outer loop
      vertex 0.000000E+000 0.000000E+000 0.000000E+000
      vertex 3.973379E+002 9.735621E-017 1.590000E+000
      vertex 0.000000E+000 9.735621E-017 1.590000E+000
    endloop
  endfacet
  facet normal 1.000000E+000 -6.123032E-017 6.123032E-017
    outer loop
      vertex 3.973379E+002 0.000000E+000 0.000000E+000
      vertex 3.973379E+002 3.001169E+002 0.000000E+000
      vertex 3.973379E+002 3.001169E+002 1.590000E+000
    endloop
  endfacet
  facet normal 1.000000E+000 -6.123032E-017 6.123032E-017
    outer loop
      vertex 3.973379E+002 0.000000E+000 0.000000E+000
      vertex 3.973379E+002 3.001169E+002 1.590000E+000
      vertex 3.973379E+002 5.961151E-033 1.590000E+000
    endloop
  endfacet
  facet normal 1.136868E-016 1.000000E+000 6.123032E-017
    outer loop
      vertex 3.973379E+002 3.001169E+002 0.000000E+000
      vertex 0.000000E+000 3.001169E+002 0.000000E+000
      vertex 0.000000E+000 3.001169E+002 1.590000E+000
    endloop
  endfacet
  facet normal 1.136868E-016 1.000000E+000 6.123032E-017
    outer loop
      vertex 3.973379E+002 3.001169E+002 0.000000E+000
      vertex 0.000000E+000 3.001169E+002 1.590000E+000
      vertex 3.973379E+002 3.001169E+002 1.590000E+000
    endloop
  endfacet
  facet normal -1.000000E+000 2.273737E-016 6.123032E-017
    outer loop
      vertex 0.000000E+000 3.001169E+002 0.000000E+000
      vertex -5.512876E-014 0.000000E+000 0.000000E+000
      vertex -5.503141E-014 0.000000E+000 1.590000E+000
    endloop
  endfacet
  facet normal -1.000000E+000 2.273737E-016 6.123032E-017
    outer loop
      vertex 0.000000E+000 3.001169E+002 0.000000E+000
      vertex -5.503141E-014 0.000000E+000 1.590000E+000
      vertex 9.735621E-017 3.001169E+002 1.590000E+000
    endloop
  endfacet
endsolid eMachineShop01
